<svg width="512" height="512" viewBox="0 0 512 512" fill="none" xmlns="http://www.w3.org/2000/svg">
<path fill-rule="evenodd" clip-rule="evenodd" d="M76.9654 234.027L80.2421 237.304C74.8352 241.644 71.3305 248.596 71.3305 256.423C71.3305 264.251 74.8352 271.201 80.2421 275.543L76.9654 278.819C70.7276 273.614 66.7161 265.514 66.7161 256.423C66.7161 247.332 70.7276 239.233 76.9654 234.027Z" fill="#1D9CD4"/>
<path fill-rule="evenodd" clip-rule="evenodd" d="M83.306 282.746C81.0301 284.082 78.3793 284.847 75.5526 284.847H52.136V264.866C52.136 261.48 49.3867 258.73 46 258.73V254.116C49.3867 254.116 52.136 251.366 52.136 247.979V228H75.5526H75.6023C78.4105 228.008 81.0428 228.773 83.306 230.099C86.4116 228.746 89.811 228 93.3725 228C102.511 228 110.583 232.914 115.386 240.398L112.032 243.752C108.129 237.062 101.228 232.614 93.3725 232.614C91.2817 232.614 89.2603 232.929 87.343 233.517C89.5739 236.184 90.9172 239.619 90.9172 243.365C90.9172 248.875 88.0118 253.711 83.6497 256.423C88.0118 259.135 90.9172 263.972 90.9172 269.482C90.9172 273.227 89.575 276.661 87.343 279.33C89.2603 279.917 91.2828 280.232 93.3725 280.232C102.383 280.232 110.138 274.379 113.555 266.001L117.046 269.492C112.605 278.611 103.666 284.847 93.3725 284.847C89.811 284.847 86.4116 284.1 83.306 282.746ZM56.7503 280.232V264.866C56.7503 261.444 55.1478 258.393 52.652 256.423C55.1478 254.454 56.7503 251.403 56.7503 247.979V232.614H75.5526C81.486 232.614 86.3029 237.431 86.3029 243.365C86.3029 249.298 81.486 254.116 75.5526 254.116V258.73C81.486 258.73 86.3029 263.547 86.3029 269.482C86.3029 275.403 81.5057 280.212 75.5873 280.232H75.5526H56.7503Z" fill="white"/>
<path d="M164.518 264.429C164.518 260.522 162.653 257.784 158.92 256.214C162.059 254.54 163.629 251.941 163.629 248.418C163.629 245.313 162.39 242.68 159.914 240.517C157.542 238.564 154.787 237.587 151.647 237.587H135.532V275.311H152.537C155.641 275.311 158.414 274.3 160.856 272.277C162.111 271.23 163.036 270.062 163.629 268.771C164.222 267.48 164.518 266.033 164.518 264.429ZM158.868 264.429C158.868 266.033 158.205 267.289 156.879 268.195C155.658 269.137 154.211 269.608 152.537 269.608H141.182V259.249H152.537C154.211 259.249 155.658 259.72 156.879 260.662C158.205 261.638 158.868 262.894 158.868 264.429ZM157.926 248.418C157.926 249.953 157.281 251.208 155.99 252.185C154.734 253.127 153.286 253.598 151.647 253.598H141.182V243.237H151.647C153.286 243.237 154.734 243.708 155.99 244.65C157.281 245.627 157.926 246.883 157.926 248.418Z" fill="white"/>
<path d="M200.098 275.311V246.743H194.395V250.615C191.604 247.406 188.134 245.801 183.982 245.801C181.96 245.801 180.084 246.176 178.358 246.926C176.631 247.677 175.105 248.836 173.779 250.407C171.059 253.336 169.698 256.877 169.698 261.027C169.698 265.144 171.042 268.666 173.727 271.597C176.448 274.667 179.866 276.201 183.982 276.201C188.203 276.201 191.674 274.596 194.395 271.388V275.311H200.098ZM194.395 261.027C194.395 263.678 193.47 265.929 191.621 267.777C189.773 269.625 187.523 270.55 184.872 270.55C182.221 270.55 179.971 269.625 178.123 267.777C176.274 265.929 175.349 263.678 175.349 261.027C175.349 258.376 176.274 256.127 178.123 254.278C179.971 252.429 182.221 251.505 184.872 251.505C187.523 251.505 189.773 252.429 191.621 254.278C193.47 256.127 194.395 258.376 194.395 261.027Z" fill="white"/>
<path d="M231.805 275.311V258.255C231.805 254.905 230.724 252.045 228.561 249.673C226.364 247.093 223.591 245.801 220.242 245.801C217.207 245.801 214.643 246.866 212.55 248.994V246.743H206.9V275.311H212.55V258.255C212.55 256.371 213.213 254.766 214.539 253.44C215.829 252.15 217.434 251.505 219.352 251.505C221.201 251.505 222.806 252.15 224.166 253.44C225.457 254.801 226.101 256.406 226.101 258.255V275.311H231.805Z" fill="white"/>
<path d="M262.571 275.311V246.743H256.868V263.749C256.868 265.596 256.222 267.201 254.932 268.562C254.269 269.19 253.537 269.679 252.734 270.027C251.932 270.376 251.059 270.55 250.118 270.55C249.176 270.55 248.304 270.376 247.501 270.027C246.7 269.679 245.967 269.19 245.304 268.562C244.677 267.899 244.189 267.167 243.839 266.365C243.491 265.562 243.316 264.69 243.316 263.749V246.743H237.665V263.749C237.665 267.062 238.73 269.94 240.856 272.381C243.09 274.928 245.863 276.201 249.176 276.201C252.141 276.201 254.705 275.155 256.868 273.062V275.311H262.571Z" fill="white"/>
<path d="M298.62 275.311V246.743H292.917V250.615C290.128 247.406 286.656 245.801 282.506 245.801C280.482 245.801 278.608 246.176 276.882 246.926C275.154 247.677 273.628 248.836 272.303 250.407C269.582 253.336 268.222 256.877 268.222 261.027C268.222 265.144 269.564 268.666 272.251 271.597C274.971 274.667 278.389 276.201 282.506 276.201C286.726 276.201 290.197 274.596 292.917 271.388V275.311H298.62ZM292.917 261.027C292.917 263.678 291.994 265.929 290.145 267.777C288.296 269.625 286.047 270.55 283.395 270.55C280.744 270.55 278.494 269.625 276.645 267.777C274.797 265.929 273.872 263.678 273.872 261.027C273.872 258.376 274.797 256.127 276.645 254.278C278.494 252.429 280.744 251.505 283.395 251.505C286.047 251.505 288.296 252.429 290.145 254.278C291.994 256.127 292.917 258.376 292.917 261.027Z" fill="white"/>
<path d="M338.02 269.608L334.357 266.103C331.322 269.068 327.887 270.55 324.049 270.55C320.212 270.55 316.881 269.173 314.056 266.417C311.301 263.591 309.923 260.26 309.923 256.423C309.923 252.586 311.301 249.255 314.056 246.43C316.812 243.708 320.143 242.349 324.049 242.349C327.922 242.349 331.357 243.814 334.357 246.743L338.438 242.872C334.287 238.72 329.491 236.646 324.049 236.646C318.643 236.646 313.986 238.599 310.08 242.505C306.207 246.378 304.271 251.016 304.271 256.423C304.271 261.83 306.19 266.504 310.027 270.446C313.934 274.283 318.609 276.201 324.049 276.201C329.421 276.201 334.079 274.265 338.02 270.394V269.608Z" fill="#1D9CD4"/>
<path d="M373.756 261.027C373.756 256.877 372.256 253.301 369.257 250.301C366.257 247.302 362.681 245.801 358.53 245.801C354.379 245.801 350.821 247.302 347.857 250.301C344.857 253.301 343.357 256.877 343.357 261.027C343.357 265.179 344.857 268.737 347.857 271.701C350.821 274.701 354.379 276.201 358.53 276.201C362.681 276.201 366.257 274.701 369.257 271.701C372.256 268.737 373.756 265.179 373.756 261.027ZM368.052 261.027C368.052 263.678 367.129 265.929 365.28 267.777C363.431 269.625 361.182 270.55 358.53 270.55C355.879 270.55 353.63 269.625 351.781 267.777C349.932 265.929 349.007 263.678 349.007 261.027C349.007 258.376 349.932 256.127 351.781 254.278C353.63 252.429 355.879 251.505 358.53 251.505C361.182 251.505 363.431 252.429 365.28 254.278C367.129 256.127 368.052 258.376 368.052 261.027Z" fill="#1D9CD4"/>
<path d="M408.655 275.311V237.587H402.952V250.615C400.162 247.406 396.691 245.801 392.539 245.801C390.517 245.801 388.642 246.176 386.915 246.926C385.188 247.677 383.662 248.836 382.337 250.407C379.616 253.336 378.255 256.877 378.255 261.027C378.255 265.144 379.599 268.666 382.284 271.597C385.006 274.667 388.424 276.201 392.539 276.201C396.76 276.201 400.231 274.596 402.952 271.388V275.311H408.655ZM402.952 261.027C402.952 263.678 402.027 265.929 400.179 267.777C398.33 269.625 396.08 270.55 393.429 270.55C390.778 270.55 388.529 269.625 386.68 267.777C384.831 265.929 383.906 263.678 383.906 261.027C383.906 258.376 384.831 256.127 386.68 254.278C388.529 252.429 390.778 251.505 393.429 251.505C396.08 251.505 398.33 252.429 400.179 254.278C402.027 256.127 402.952 258.376 402.952 261.027Z" fill="#1D9CD4"/>
<path d="M444.705 261.027C444.705 256.877 443.206 253.301 440.206 250.301C437.205 247.302 433.63 245.801 429.48 245.801C425.328 245.801 421.77 247.302 418.806 250.301C415.805 253.301 414.306 256.877 414.306 261.027C414.306 265.179 415.805 268.737 418.806 271.701C421.77 274.701 425.328 276.201 429.48 276.201C431.852 276.201 434.127 275.634 436.307 274.5C438.487 273.367 440.346 271.789 441.88 269.765L437.119 266.678C435.025 269.26 432.479 270.55 429.48 270.55C427.317 270.55 425.345 269.852 423.567 268.457C422.032 267.236 420.986 265.702 420.428 263.853H444.444C444.513 263.26 444.575 262.736 444.627 262.284C444.679 261.83 444.705 261.411 444.705 261.027ZM423.567 253.546C425.345 252.185 427.317 251.505 429.48 251.505C431.746 251.505 433.718 252.185 435.392 253.546C436.892 254.697 437.955 256.231 438.583 258.15H420.428C420.986 256.336 422.032 254.801 423.567 253.546Z" fill="#1D9CD4"/>
<path d="M466 251.453V246.011C465.512 245.941 465.077 245.889 464.692 245.853C464.308 245.819 463.977 245.801 463.699 245.801C460.664 245.801 458.1 246.866 456.006 248.994V246.743H450.356V275.311H456.006V258.255C456.006 256.371 456.669 254.766 457.995 253.44C459.285 252.15 460.89 251.505 462.809 251.505C463.611 251.505 464.431 251.645 465.268 251.923L466 251.453Z" fill="#1D9CD4"/>
</svg>
