<svg width="512" height="512" viewBox="0 0 512 512" fill="none" xmlns="http://www.w3.org/2000/svg">
<path fill-rule="evenodd" clip-rule="evenodd" d="M76.9453 234.043L80.2199 237.329C74.8165 241.681 71.314 248.651 71.314 256.5C71.314 264.349 74.8165 271.318 80.2199 275.671L76.9453 278.957C70.7116 273.737 66.7026 265.616 66.7026 256.5C66.7026 247.384 70.7116 239.263 76.9453 234.043Z" fill="#1D9CD4"/>
<path fill-rule="evenodd" clip-rule="evenodd" d="M83.2819 282.894C81.0074 284.233 78.3583 285 75.5334 285H52.1319V264.966C52.1319 261.57 49.3845 258.813 46 258.813V254.187C49.3845 254.187 52.1319 251.429 52.1319 248.033V228H75.5334H75.5831C78.3895 228.008 81.0201 228.775 83.2819 230.105C86.3854 228.748 89.7827 228 93.3418 228C102.474 228 110.541 232.927 115.341 240.431L111.99 243.795C108.088 237.087 101.192 232.627 93.3418 232.627C91.2524 232.627 89.2323 232.942 87.3163 233.532C89.5456 236.206 90.8881 239.651 90.8881 243.406C90.8881 248.931 87.9846 253.781 83.6253 256.5C87.9846 259.219 90.8881 264.069 90.8881 269.594C90.8881 273.349 89.5468 276.793 87.3163 279.468C89.2323 280.058 91.2535 280.373 93.3418 280.373C102.346 280.373 110.097 274.504 113.511 266.104L117 269.604C112.562 278.748 103.628 285 93.3418 285C89.7827 285 86.3854 284.252 83.2819 282.894ZM56.7433 280.373V264.966C56.7433 261.534 55.1418 258.475 52.6476 256.5C55.1418 254.525 56.7433 251.466 56.7433 248.033V232.627H75.5334C81.463 232.627 86.2767 237.457 86.2767 243.406C86.2767 249.356 81.463 254.187 75.5334 254.187V258.813C81.463 258.813 86.2767 263.643 86.2767 269.594C86.2767 275.531 81.4827 280.353 75.5681 280.373H75.5334H56.7433Z" fill="#12398C"/>
<path d="M165.12 263.691C165.12 259.937 163.246 257.307 159.496 255.799C162.65 254.19 164.227 251.694 164.227 248.309C164.227 245.327 162.982 242.797 160.495 240.719C158.112 238.843 155.344 237.905 152.189 237.905H136V274.145H153.083C156.202 274.145 158.988 273.174 161.441 271.231C162.702 270.225 163.631 269.102 164.227 267.863C164.822 266.622 165.12 265.232 165.12 263.691ZM159.444 263.691C159.444 265.232 158.778 266.439 157.446 267.309C156.219 268.214 154.765 268.666 153.083 268.666H141.676V258.714H153.083C154.765 258.714 156.219 259.167 157.446 260.072C158.778 261.01 159.444 262.216 159.444 263.691ZM158.498 248.309C158.498 249.784 157.849 250.99 156.553 251.928C155.29 252.833 153.836 253.286 152.189 253.286H141.676V243.333H152.189C153.836 243.333 155.29 243.785 156.553 244.69C157.849 245.628 158.498 246.835 158.498 248.309Z" fill="#12398C"/>
<path d="M200.865 274.145V246.701H195.135V250.42C192.331 247.338 188.845 245.796 184.674 245.796C182.642 245.796 180.758 246.156 179.024 246.876C177.289 247.598 175.756 248.711 174.424 250.22C171.691 253.034 170.324 256.436 170.324 260.423C170.324 264.378 171.674 267.761 174.372 270.577C177.106 273.526 180.54 275 184.674 275C188.915 275 192.402 273.458 195.135 270.376V274.145H200.865ZM195.135 260.423C195.135 262.97 194.206 265.132 192.349 266.908C190.492 268.683 188.231 269.571 185.568 269.571C182.905 269.571 180.644 268.683 178.788 266.908C176.93 265.132 176.002 262.97 176.002 260.423C176.002 257.876 176.93 255.715 178.788 253.939C180.644 252.163 182.905 251.275 185.568 251.275C188.231 251.275 190.492 252.163 192.349 253.939C194.206 255.715 195.135 257.876 195.135 260.423Z" fill="#12398C"/>
<path d="M232.719 274.145V257.76C232.719 254.542 231.633 251.794 229.46 249.515C227.253 247.036 224.467 245.796 221.102 245.796C218.053 245.796 215.478 246.818 213.375 248.863V246.701H207.699V274.145H213.375V257.76C213.375 255.95 214.041 254.408 215.373 253.134C216.669 251.895 218.281 251.275 220.209 251.275C222.066 251.275 223.678 251.895 225.044 253.134C226.342 254.442 226.989 255.983 226.989 257.76V274.145H232.719Z" fill="#12398C"/>
<path d="M263.628 274.145V246.701H257.898V263.037C257.898 264.812 257.249 266.354 255.953 267.661C255.287 268.265 254.551 268.734 253.745 269.069C252.939 269.404 252.063 269.571 251.116 269.571C250.17 269.571 249.295 269.404 248.488 269.069C247.683 268.734 246.947 268.265 246.281 267.661C245.651 267.025 245.16 266.321 244.809 265.551C244.459 264.779 244.284 263.942 244.284 263.037V246.701H238.606V263.037C238.606 266.221 239.676 268.985 241.812 271.331C244.056 273.777 246.842 275 250.17 275C253.15 275 255.726 273.995 257.898 271.984V274.145H263.628Z" fill="#12398C"/>
<path d="M299.844 274.145V246.701H294.115V250.42C291.312 247.338 287.825 245.796 283.655 245.796C281.622 245.796 279.739 246.156 278.005 246.876C276.269 247.598 274.736 248.711 273.405 250.22C270.671 253.034 269.305 256.436 269.305 260.423C269.305 264.378 270.653 267.761 273.353 270.577C276.085 273.526 279.519 275 283.655 275C287.894 275 291.382 273.458 294.115 270.376V274.145H299.844ZM294.115 260.423C294.115 262.97 293.187 265.132 291.329 266.908C289.472 268.683 287.212 269.571 284.548 269.571C281.885 269.571 279.625 268.683 277.767 266.908C275.91 265.132 274.981 262.97 274.981 260.423C274.981 257.876 275.91 255.715 277.767 253.939C279.625 252.163 281.885 251.275 284.548 251.275C287.212 251.275 289.472 252.163 291.329 253.939C293.187 255.715 294.115 257.876 294.115 260.423Z" fill="#12398C"/>
<path d="M339.426 268.666L335.747 265.299C332.698 268.147 329.247 269.571 325.391 269.571C321.536 269.571 318.19 268.248 315.351 265.601C312.583 262.886 311.199 259.686 311.199 256C311.199 252.314 312.583 249.114 315.351 246.399C318.12 243.785 321.467 242.479 325.391 242.479C329.282 242.479 332.733 243.886 335.747 246.701L339.847 242.981C335.676 238.993 330.858 237 325.391 237C319.96 237 315.281 238.876 311.357 242.629C307.466 246.349 305.522 250.806 305.522 256C305.522 261.194 307.449 265.684 311.303 269.471C315.229 273.157 319.925 275 325.391 275C330.788 275 335.467 273.14 339.426 269.421V268.666Z" fill="#1D9CD4"/>
<path d="M375.328 260.423C375.328 256.436 373.821 253.001 370.808 250.119C367.794 247.238 364.202 245.796 360.031 245.796C355.862 245.796 352.287 247.238 349.309 250.119C346.295 253.001 344.788 256.436 344.788 260.423C344.788 264.411 346.295 267.829 349.309 270.677C352.287 273.559 355.862 275 360.031 275C364.202 275 367.794 273.559 370.808 270.677C373.821 267.829 375.328 264.411 375.328 260.423ZM369.598 260.423C369.598 262.97 368.671 265.132 366.813 266.908C364.955 268.683 362.696 269.571 360.031 269.571C357.368 269.571 355.108 268.683 353.251 266.908C351.393 265.132 350.465 262.97 350.465 260.423C350.465 257.876 351.393 255.715 353.251 253.939C355.108 252.163 357.368 251.275 360.031 251.275C362.696 251.275 364.955 252.163 366.813 253.939C368.671 255.715 369.598 257.876 369.598 260.423Z" fill="#1D9CD4"/>
<path d="M410.389 274.145V237.905H404.659V250.42C401.857 247.338 398.369 245.796 394.199 245.796C392.167 245.796 390.284 246.156 388.548 246.876C386.814 247.598 385.28 248.711 383.949 250.22C381.215 253.034 379.848 256.436 379.848 260.423C379.848 264.378 381.198 267.761 383.896 270.577C386.63 273.526 390.064 275 394.199 275C398.439 275 401.926 273.458 404.659 270.376V274.145H410.389ZM404.659 260.423C404.659 262.97 403.73 265.132 401.874 266.908C400.017 268.683 397.756 269.571 395.092 269.571C392.429 269.571 390.17 268.683 388.312 266.908C386.454 265.132 385.526 262.97 385.526 260.423C385.526 257.876 386.454 255.715 388.312 253.939C390.17 252.163 392.429 251.275 395.092 251.275C397.756 251.275 400.017 252.163 401.874 253.939C403.73 255.715 404.659 257.876 404.659 260.423Z" fill="#1D9CD4"/>
<path d="M446.607 260.423C446.607 256.436 445.1 253.001 442.086 250.119C439.072 247.238 435.48 245.796 431.31 245.796C427.14 245.796 423.565 247.238 420.587 250.119C417.573 253.001 416.066 256.436 416.066 260.423C416.066 264.411 417.573 267.829 420.587 270.677C423.565 273.559 427.14 275 431.31 275C433.693 275 435.98 274.455 438.17 273.366C440.36 272.278 442.227 270.762 443.768 268.817L438.985 265.852C436.882 268.332 434.323 269.571 431.31 269.571C429.138 269.571 427.157 268.901 425.37 267.56C423.828 266.388 422.777 264.914 422.217 263.137H446.344C446.414 262.568 446.475 262.065 446.528 261.63C446.58 261.194 446.607 260.792 446.607 260.423ZM425.37 253.236C427.157 251.928 429.138 251.275 431.31 251.275C433.588 251.275 435.568 251.928 437.25 253.236C438.757 254.342 439.825 255.815 440.456 257.658H422.217C422.777 255.917 423.828 254.442 425.37 253.236Z" fill="#1D9CD4"/>
<path d="M468 251.225V245.997C467.509 245.93 467.072 245.88 466.686 245.846C466.301 245.812 465.968 245.796 465.688 245.796C462.639 245.796 460.063 246.818 457.96 248.863V246.701H452.284V274.145H457.96V257.76C457.96 255.95 458.626 254.408 459.958 253.134C461.254 251.895 462.867 251.275 464.794 251.275C465.6 251.275 466.424 251.409 467.264 251.677L468 251.225Z" fill="#1D9CD4"/>
</svg>
