<svg width="512" height="512" viewBox="0 0 512 512" fill="none" xmlns="http://www.w3.org/2000/svg">
<path d="M104.152 303.28C97.752 303.28 91.8213 302.555 86.36 301.104C80.8987 299.568 76.1627 297.349 72.152 294.448L82.008 280.496C86.2747 283.056 90.1573 284.933 93.656 286.128C97.1547 287.237 100.611 287.792 104.024 287.792C107.437 287.792 110.125 287.323 112.088 286.384C114.136 285.36 115.16 284.037 115.16 282.416C115.16 281.136 114.605 280.112 113.496 279.344C112.387 278.491 110.637 277.893 108.248 277.552L94.808 275.504C88.0667 274.48 82.904 272.261 79.32 268.848C75.8213 265.349 74.072 260.827 74.072 255.28C74.072 250.672 75.224 246.747 77.528 243.504C79.9173 240.176 83.288 237.659 87.64 235.952C91.992 234.16 97.1973 233.264 103.256 233.264C108.205 233.264 113.112 233.947 117.976 235.312C122.84 236.677 127.363 238.725 131.544 241.456L121.688 254.768C118.019 252.635 114.52 251.099 111.192 250.16C107.864 249.136 104.536 248.624 101.208 248.624C98.5627 248.624 96.4293 249.093 94.808 250.032C93.1867 250.885 92.376 252.037 92.376 253.488C92.376 254.853 92.9733 255.963 94.168 256.816C95.3627 257.584 97.4107 258.181 100.312 258.608L113.752 260.656C120.408 261.595 125.528 263.813 129.112 267.312C132.781 270.725 134.616 275.077 134.616 280.368C134.616 284.805 133.293 288.731 130.648 292.144C128.003 295.557 124.376 298.288 119.768 300.336C115.245 302.299 110.04 303.28 104.152 303.28ZM142.525 302V234.288H163.261V238.64C168.04 234.885 173.672 233.008 180.157 233.008C184.424 233.008 188.264 233.819 191.677 235.44C195.09 237.061 197.949 239.365 200.253 242.352C202.984 239.365 206.226 237.061 209.981 235.44C213.736 233.819 217.832 233.008 222.269 233.008C227.389 233.008 231.912 234.16 235.837 236.464C239.762 238.768 242.834 241.968 245.053 246.064C247.357 250.16 248.509 254.896 248.509 260.272V302H227.773V263.088C227.773 259.333 226.749 256.347 224.701 254.128C222.738 251.909 220.093 250.8 216.765 250.8C214.461 250.8 212.37 251.227 210.493 252.08C208.616 252.933 206.994 254.213 205.629 255.92C205.714 256.603 205.757 257.328 205.757 258.096C205.842 258.779 205.885 259.504 205.885 260.272V302H185.149V263.088C185.149 259.333 184.125 256.347 182.077 254.128C180.114 251.909 177.469 250.8 174.141 250.8C171.837 250.8 169.746 251.227 167.869 252.08C166.077 252.848 164.541 254.043 163.261 255.664V302H142.525ZM282.407 303.152C277.628 303.152 273.362 302.256 269.607 300.464C265.938 298.672 263.036 296.197 260.903 293.04C258.855 289.883 257.831 286.256 257.831 282.16C257.831 275.675 260.263 270.683 265.127 267.184C270.076 263.6 276.946 261.808 285.735 261.808C291.026 261.808 296.146 262.448 301.095 263.728V260.4C301.095 256.987 299.986 254.469 297.767 252.848C295.634 251.141 292.434 250.288 288.167 250.288C285.522 250.288 282.535 250.715 279.207 251.568C275.964 252.421 272.124 253.787 267.687 255.664L260.263 240.432C265.81 237.957 271.143 236.123 276.263 234.928C281.468 233.648 286.674 233.008 291.879 233.008C301.266 233.008 308.562 235.269 313.767 239.792C318.972 244.229 321.575 250.501 321.575 258.608V302H301.095V297.904C298.364 299.781 295.463 301.147 292.391 302C289.404 302.768 286.076 303.152 282.407 303.152ZM277.543 281.776C277.543 283.909 278.482 285.573 280.359 286.768C282.236 287.963 284.839 288.56 288.167 288.56C290.642 288.56 292.946 288.304 295.079 287.792C297.298 287.28 299.303 286.469 301.095 285.36V276.656C299.132 276.144 297.127 275.76 295.079 275.504C293.031 275.248 290.94 275.12 288.807 275.12C285.223 275.12 282.45 275.717 280.487 276.912C278.524 278.021 277.543 279.643 277.543 281.776ZM333.9 302V234.288H354.636V241.072C356.855 238.341 359.457 236.293 362.444 234.928C365.431 233.477 368.759 232.752 372.428 232.752C376.097 232.837 378.7 233.392 380.236 234.416V252.464C378.871 251.781 377.335 251.269 375.628 250.928C373.921 250.587 372.172 250.416 370.38 250.416C367.137 250.416 364.108 251.184 361.292 252.72C358.561 254.171 356.343 256.261 354.636 258.992V302H333.9ZM423.326 302.896C415.219 302.896 409.075 301.104 404.894 297.52C400.798 293.851 398.75 288.475 398.75 281.392V251.568H385.054V234.288H398.75V216.88L419.486 212.4V234.288H438.43V251.568H419.486V277.296C419.486 280.283 420.126 282.416 421.406 283.696C422.771 284.891 425.118 285.488 428.446 285.488C430.153 285.488 431.689 285.403 433.054 285.232C434.505 284.976 436.083 284.592 437.79 284.08V300.848C435.913 301.445 433.523 301.915 430.622 302.256C427.721 302.683 425.289 302.896 423.326 302.896Z" fill="white"/>
<circle cx="370" cy="268" r="12" fill="#40BBF0"/>
</svg>
